<mxfile modified="2021-01-01T07:12:37.720Z" host="app.diagrams.net" agent="5.0 (Windows NT 10.0; Win64; x64) AppleWebKit/537.36 (KHTML, like Gecko) Chrome/85.0.4183.121 Safari/537.36 OPR/71.0.3770.456" etag="A5grtQ8OjBLamvqprLyJ" version="14.1.1" type="github">
  <diagram id="Ht1M8jgEwFfnCIfOTk4-" name="Page-1">
    <mxGraphModel dx="2424" dy="544" grid="1" gridSize="10" guides="1" tooltips="1" connect="1" arrows="1" fold="1" page="1" pageScale="1" pageWidth="1169" pageHeight="827" math="0" shadow="0">
      <root>
        <mxCell id="0" />
        <mxCell id="1" parent="0" />
        <mxCell id="OI7UFZAb1m8MOGc3OwJh-11" value="Http-Get" style="edgeStyle=orthogonalEdgeStyle;rounded=0;orthogonalLoop=1;jettySize=auto;html=1;" edge="1" parent="1" source="OI7UFZAb1m8MOGc3OwJh-1" target="OI7UFZAb1m8MOGc3OwJh-3">
          <mxGeometry relative="1" as="geometry">
            <Array as="points">
              <mxPoint x="358" y="566" />
            </Array>
          </mxGeometry>
        </mxCell>
        <mxCell id="OI7UFZAb1m8MOGc3OwJh-45" value="Http - Post" style="edgeStyle=orthogonalEdgeStyle;rounded=0;orthogonalLoop=1;jettySize=auto;html=1;" edge="1" parent="1" source="OI7UFZAb1m8MOGc3OwJh-1" target="OI7UFZAb1m8MOGc3OwJh-2">
          <mxGeometry relative="1" as="geometry">
            <Array as="points">
              <mxPoint x="358" y="310" />
              <mxPoint x="614" y="310" />
            </Array>
          </mxGeometry>
        </mxCell>
        <mxCell id="OI7UFZAb1m8MOGc3OwJh-1" value="Api Gateway" style="outlineConnect=0;dashed=0;verticalLabelPosition=bottom;verticalAlign=top;align=center;html=1;shape=mxgraph.aws3.api_gateway;fillColor=#D9A741;gradientColor=none;" vertex="1" parent="1">
          <mxGeometry x="320" y="390" width="76.5" height="93" as="geometry" />
        </mxCell>
        <mxCell id="OI7UFZAb1m8MOGc3OwJh-6" style="edgeStyle=orthogonalEdgeStyle;rounded=0;orthogonalLoop=1;jettySize=auto;html=1;" edge="1" parent="1" source="OI7UFZAb1m8MOGc3OwJh-2" target="OI7UFZAb1m8MOGc3OwJh-4">
          <mxGeometry relative="1" as="geometry" />
        </mxCell>
        <mxCell id="OI7UFZAb1m8MOGc3OwJh-25" value="" style="edgeStyle=orthogonalEdgeStyle;rounded=0;orthogonalLoop=1;jettySize=auto;html=1;" edge="1" parent="1" source="OI7UFZAb1m8MOGc3OwJh-2" target="OI7UFZAb1m8MOGc3OwJh-24">
          <mxGeometry relative="1" as="geometry">
            <Array as="points">
              <mxPoint x="640" y="380" />
            </Array>
          </mxGeometry>
        </mxCell>
        <mxCell id="OI7UFZAb1m8MOGc3OwJh-2" value="Lambda - Review Camera Create" style="outlineConnect=0;dashed=0;verticalLabelPosition=bottom;verticalAlign=top;align=center;html=1;shape=mxgraph.aws3.lambda_function;fillColor=#F58534;gradientColor=none;" vertex="1" parent="1">
          <mxGeometry x="580" y="260" width="69" height="72" as="geometry" />
        </mxCell>
        <mxCell id="OI7UFZAb1m8MOGc3OwJh-9" style="edgeStyle=orthogonalEdgeStyle;rounded=0;orthogonalLoop=1;jettySize=auto;html=1;" edge="1" parent="1" source="OI7UFZAb1m8MOGc3OwJh-3" target="OI7UFZAb1m8MOGc3OwJh-8">
          <mxGeometry relative="1" as="geometry">
            <Array as="points">
              <mxPoint x="635" y="670" />
            </Array>
          </mxGeometry>
        </mxCell>
        <mxCell id="OI7UFZAb1m8MOGc3OwJh-27" style="edgeStyle=orthogonalEdgeStyle;rounded=0;orthogonalLoop=1;jettySize=auto;html=1;" edge="1" parent="1" source="OI7UFZAb1m8MOGc3OwJh-3" target="OI7UFZAb1m8MOGc3OwJh-24">
          <mxGeometry relative="1" as="geometry" />
        </mxCell>
        <mxCell id="OI7UFZAb1m8MOGc3OwJh-3" value="Lambda - Get Review Camara" style="outlineConnect=0;dashed=0;verticalLabelPosition=bottom;verticalAlign=top;align=center;html=1;shape=mxgraph.aws3.lambda_function;fillColor=#F58534;gradientColor=none;" vertex="1" parent="1">
          <mxGeometry x="585" y="520" width="69" height="72" as="geometry" />
        </mxCell>
        <mxCell id="OI7UFZAb1m8MOGc3OwJh-30" style="edgeStyle=orthogonalEdgeStyle;rounded=0;orthogonalLoop=1;jettySize=auto;html=1;" edge="1" parent="1" source="OI7UFZAb1m8MOGc3OwJh-4" target="OI7UFZAb1m8MOGc3OwJh-29">
          <mxGeometry relative="1" as="geometry">
            <Array as="points">
              <mxPoint x="1220" y="296" />
            </Array>
          </mxGeometry>
        </mxCell>
        <mxCell id="OI7UFZAb1m8MOGc3OwJh-4" value="Amazon&#xa;Aurora" style="outlineConnect=0;fontColor=#232F3E;gradientColor=none;strokeColor=#ffffff;fillColor=#232F3E;dashed=0;verticalLabelPosition=middle;verticalAlign=bottom;align=center;html=1;whiteSpace=wrap;fontSize=10;fontStyle=1;spacing=3;shape=mxgraph.aws4.productIcon;prIcon=mxgraph.aws4.aurora;" vertex="1" parent="1">
          <mxGeometry x="970" y="241" width="80" height="110" as="geometry" />
        </mxCell>
        <mxCell id="OI7UFZAb1m8MOGc3OwJh-12" value="" style="edgeStyle=orthogonalEdgeStyle;rounded=0;orthogonalLoop=1;jettySize=auto;html=1;" edge="1" parent="1" source="OI7UFZAb1m8MOGc3OwJh-8" target="OI7UFZAb1m8MOGc3OwJh-10">
          <mxGeometry relative="1" as="geometry" />
        </mxCell>
        <mxCell id="OI7UFZAb1m8MOGc3OwJh-8" value="Amazon ElastiCache for Redis" style="outlineConnect=0;fontColor=#232F3E;gradientColor=none;strokeColor=#ffffff;fillColor=#232F3E;dashed=0;verticalLabelPosition=middle;verticalAlign=bottom;align=center;html=1;whiteSpace=wrap;fontSize=10;fontStyle=1;spacing=3;shape=mxgraph.aws4.productIcon;prIcon=mxgraph.aws4.elasticache_for_redis;" vertex="1" parent="1">
          <mxGeometry x="966" y="640" width="80" height="120" as="geometry" />
        </mxCell>
        <mxCell id="OI7UFZAb1m8MOGc3OwJh-10" value="Dynamo DB" style="outlineConnect=0;dashed=0;verticalLabelPosition=bottom;verticalAlign=top;align=center;html=1;shape=mxgraph.aws3.dynamo_db;fillColor=#2E73B8;gradientColor=none;" vertex="1" parent="1">
          <mxGeometry x="970" y="438" width="72" height="81" as="geometry" />
        </mxCell>
        <mxCell id="OI7UFZAb1m8MOGc3OwJh-16" value="Cloud Formation" style="outlineConnect=0;dashed=0;verticalLabelPosition=bottom;verticalAlign=top;align=center;html=1;shape=mxgraph.aws3.cloudformation;fillColor=#759C3E;gradientColor=none;" vertex="1" parent="1">
          <mxGeometry x="280" y="145" width="76.5" height="93" as="geometry" />
        </mxCell>
        <mxCell id="OI7UFZAb1m8MOGc3OwJh-23" value="Amazon S3" style="outlineConnect=0;fontColor=#232F3E;gradientColor=none;strokeColor=#ffffff;fillColor=#232F3E;dashed=0;verticalLabelPosition=middle;verticalAlign=bottom;align=center;html=1;whiteSpace=wrap;fontSize=10;fontStyle=1;spacing=3;shape=mxgraph.aws4.productIcon;prIcon=mxgraph.aws4.s3;" vertex="1" parent="1">
          <mxGeometry x="500" y="220" width="53.5" height="70" as="geometry" />
        </mxCell>
        <mxCell id="OI7UFZAb1m8MOGc3OwJh-24" value="Cloud Watch" style="outlineConnect=0;dashed=0;verticalLabelPosition=bottom;verticalAlign=top;align=center;html=1;shape=mxgraph.aws3.cloudwatch;fillColor=#759C3E;gradientColor=none;" vertex="1" parent="1">
          <mxGeometry x="720" y="353" width="82.5" height="93" as="geometry" />
        </mxCell>
        <mxCell id="OI7UFZAb1m8MOGc3OwJh-31" style="edgeStyle=orthogonalEdgeStyle;rounded=0;orthogonalLoop=1;jettySize=auto;html=1;" edge="1" parent="1" source="OI7UFZAb1m8MOGc3OwJh-29" target="OI7UFZAb1m8MOGc3OwJh-10">
          <mxGeometry relative="1" as="geometry">
            <Array as="points">
              <mxPoint x="1121" y="470" />
              <mxPoint x="1121" y="479" />
            </Array>
          </mxGeometry>
        </mxCell>
        <mxCell id="OI7UFZAb1m8MOGc3OwJh-29" value="SQS Sicronizador de Registros" style="outlineConnect=0;dashed=0;verticalLabelPosition=bottom;verticalAlign=top;align=center;html=1;shape=mxgraph.aws3.sqs;fillColor=#D9A741;gradientColor=none;" vertex="1" parent="1">
          <mxGeometry x="1200" y="400" width="76.5" height="93" as="geometry" />
        </mxCell>
        <mxCell id="OI7UFZAb1m8MOGc3OwJh-32" value="Web Progreive&amp;nbsp; PWA" style="shape=image;html=1;verticalAlign=top;verticalLabelPosition=bottom;labelBackgroundColor=#ffffff;imageAspect=0;aspect=fixed;image=https://cdn4.iconfinder.com/data/icons/logos-3/600/React.js_logo-128.png" vertex="1" parent="1">
          <mxGeometry x="100" y="404" width="65" height="65" as="geometry" />
        </mxCell>
        <mxCell id="OI7UFZAb1m8MOGc3OwJh-41" value="" style="edgeStyle=orthogonalEdgeStyle;rounded=0;orthogonalLoop=1;jettySize=auto;html=1;" edge="1" parent="1" source="OI7UFZAb1m8MOGc3OwJh-33" target="OI7UFZAb1m8MOGc3OwJh-39">
          <mxGeometry relative="1" as="geometry" />
        </mxCell>
        <mxCell id="OI7UFZAb1m8MOGc3OwJh-33" value="Users" style="outlineConnect=0;dashed=0;verticalLabelPosition=bottom;verticalAlign=top;align=center;html=1;shape=mxgraph.aws3.users;fillColor=#D2D3D3;gradientColor=none;" vertex="1" parent="1">
          <mxGeometry x="-130" y="404" width="66" height="63" as="geometry" />
        </mxCell>
        <mxCell id="OI7UFZAb1m8MOGc3OwJh-34" value="Amazon S3" style="outlineConnect=0;fontColor=#232F3E;gradientColor=none;strokeColor=#ffffff;fillColor=#232F3E;dashed=0;verticalLabelPosition=middle;verticalAlign=bottom;align=center;html=1;whiteSpace=wrap;fontSize=10;fontStyle=1;spacing=3;shape=mxgraph.aws4.productIcon;prIcon=mxgraph.aws4.s3;" vertex="1" parent="1">
          <mxGeometry x="50" y="334" width="53.5" height="70" as="geometry" />
        </mxCell>
        <mxCell id="OI7UFZAb1m8MOGc3OwJh-42" style="edgeStyle=orthogonalEdgeStyle;rounded=0;orthogonalLoop=1;jettySize=auto;html=1;entryX=0.35;entryY=0.5;entryDx=0;entryDy=0;entryPerimeter=0;" edge="1" parent="1" source="OI7UFZAb1m8MOGc3OwJh-39" target="OI7UFZAb1m8MOGc3OwJh-1">
          <mxGeometry relative="1" as="geometry" />
        </mxCell>
        <mxCell id="OI7UFZAb1m8MOGc3OwJh-39" value="" style="rounded=1;arcSize=10;dashed=1;fillColor=none;gradientColor=none;dashPattern=8 3 1 3;strokeWidth=2;" vertex="1" parent="1">
          <mxGeometry x="61" y="353" width="130" height="166" as="geometry" />
        </mxCell>
        <mxCell id="OI7UFZAb1m8MOGc3OwJh-43" value="" style="rounded=1;arcSize=10;dashed=1;fillColor=none;gradientColor=none;dashPattern=8 3 1 3;strokeWidth=2;" vertex="1" parent="1">
          <mxGeometry x="500" y="238" width="330" height="392" as="geometry" />
        </mxCell>
        <mxCell id="OI7UFZAb1m8MOGc3OwJh-47" value="" style="rounded=1;arcSize=10;dashed=0;fillColor=none;gradientColor=none;strokeWidth=2;" vertex="1" parent="1">
          <mxGeometry x="920" y="230" width="160" height="540" as="geometry" />
        </mxCell>
        <mxCell id="OI7UFZAb1m8MOGc3OwJh-48" value="" style="dashed=0;html=1;shape=mxgraph.aws3.permissions;fillColor=#D9A741;gradientColor=none;dashed=0;" vertex="1" parent="1">
          <mxGeometry x="913" y="213" width="30" height="35" as="geometry" />
        </mxCell>
        <mxCell id="OI7UFZAb1m8MOGc3OwJh-49" value="" style="rounded=1;arcSize=10;dashed=1;fillColor=none;gradientColor=none;dashPattern=8 3 1 3;strokeWidth=2;" vertex="1" parent="1">
          <mxGeometry x="270" y="190" width="600" height="530" as="geometry" />
        </mxCell>
        <mxCell id="OI7UFZAb1m8MOGc3OwJh-53" value="" style="rounded=1;arcSize=10;dashed=0;fillColor=none;gradientColor=none;strokeWidth=2;" vertex="1" parent="1">
          <mxGeometry x="230" y="132" width="1110" height="668" as="geometry" />
        </mxCell>
        <mxCell id="OI7UFZAb1m8MOGc3OwJh-54" value="" style="dashed=0;html=1;shape=mxgraph.aws3.virtual_private_cloud;fillColor=#F58536;gradientColor=none;dashed=0;" vertex="1" parent="1">
          <mxGeometry x="228" y="120" width="52" height="36" as="geometry" />
        </mxCell>
        <mxCell id="OI7UFZAb1m8MOGc3OwJh-55" value="" style="rounded=1;arcSize=10;dashed=0;fillColor=none;gradientColor=none;strokeWidth=2;" vertex="1" parent="1">
          <mxGeometry x="-10" y="70" width="1400" height="780" as="geometry" />
        </mxCell>
        <mxCell id="OI7UFZAb1m8MOGc3OwJh-56" value="" style="dashed=0;html=1;shape=mxgraph.aws3.cloud;fillColor=#F58536;gradientColor=none;dashed=0;" vertex="1" parent="1">
          <mxGeometry x="18" y="50" width="52" height="36" as="geometry" />
        </mxCell>
      </root>
    </mxGraphModel>
  </diagram>
</mxfile>
